<svg width="54" height="55" viewBox="0 0 54 55" fill="none" xmlns="http://www.w3.org/2000/svg">
<path d="M27.1246 13.6144C30.3318 13.6144 32.9318 11.0144 32.9318 7.8072C32.9318 4.59997 30.3318 2 27.1246 2C23.9174 2 21.3174 4.59997 21.3174 7.8072C21.3174 11.0144 23.9174 13.6144 27.1246 13.6144Z" stroke="#413A66" stroke-width="4"/>
<path d="M46.1929 33.74C49.4002 33.74 52.0001 31.14 52.0001 27.9328C52.0001 24.7256 49.4002 22.1256 46.1929 22.1256C42.9857 22.1256 40.3857 24.7256 40.3857 27.9328C40.3857 31.14 42.9857 33.74 46.1929 33.74Z" stroke="#413A66" stroke-width="4"/>
<path d="M27.1246 52.6684C30.3318 52.6684 32.9318 50.0684 32.9318 46.8612C32.9318 43.6539 30.3318 41.054 27.1246 41.054C23.9174 41.054 21.3174 43.6539 21.3174 46.8612C21.3174 50.0684 23.9174 52.6684 27.1246 52.6684Z" stroke="#413A66" stroke-width="4"/>
<path d="M7.8072 44.1471C11.0144 44.1471 13.6144 41.5471 13.6144 38.3399C13.6144 35.1327 11.0144 32.5327 7.8072 32.5327C4.59997 32.5327 2 35.1327 2 38.3399C2 41.5471 4.59997 44.1471 7.8072 44.1471Z" stroke="#413A66" stroke-width="4"/>
<path d="M7.8072 21.4372C11.0144 21.4372 13.6144 18.8372 13.6144 15.63C13.6144 12.4227 11.0144 9.82275 7.8072 9.82275C4.59997 9.82275 2 12.4227 2 15.63C2 18.8372 4.59997 21.4372 7.8072 21.4372Z" stroke="#413A66" stroke-width="4"/>
<path d="M27.1145 30.2975C29.7045 30.2975 31.8041 28.1979 31.8041 25.6079C31.8041 23.0178 29.7045 20.9182 27.1145 20.9182C24.5244 20.9182 22.4248 23.0178 22.4248 25.6079C22.4248 28.1979 24.5244 30.2975 27.1145 30.2975Z" stroke="#413A66" stroke-width="4"/>
<path d="M12.8057 12.6665L21.5165 9.30396" stroke="#413A66" stroke-width="4"/>
<path d="M31.1953 11.958L42.0514 23.8618" stroke="#413A66" stroke-width="4"/>
<path d="M42.6406 32.5227L31.2656 42.7901" stroke="#413A66" stroke-width="4"/>
<path d="M11 20.4792L23.5224 42.3111" stroke="#413A66" stroke-width="4"/>
<path d="M12.9453 41.0439L21.3169 44.9254" stroke="#413A66" stroke-width="4"/>
<path d="M9.98242 32.9517L23.9816 12.6864" stroke="#413A66" stroke-width="4"/>
<path d="M13.1553 17.9049L22.9537 23.4427" stroke="#413A66" stroke-width="4"/>
<path d="M31.8135 26.1367L40.3846 26.7853" stroke="#413A66" stroke-width="4"/>
<path d="M27.1143 30.3076L27.1242 41.044" stroke="#413A66" stroke-width="4"/>
</svg>
