<svg width="25" height="24" viewBox="0 0 25 24" fill="none" xmlns="http://www.w3.org/2000/svg">
<path d="M22.4998 12.0002C22.4998 10.9552 22.34 9.94712 22.0419 9.00024H16.4998C17.1504 9.86495 17.5015 10.9181 17.4999 12.0002C17.5013 12.9075 17.255 13.7979 16.787 14.5753L12.5 22.0003C18.023 22.0001 22.4998 17.5233 22.4998 12.0002Z" fill="#413A66"/>
<path d="M14.0185 9.41326C13.5665 9.14791 13.0529 9.00569 12.5288 9.00076C12.0047 8.9956 11.4884 9.12802 11.0314 9.38466C10.5743 9.6413 10.1925 10.0133 9.92394 10.4633C9.65533 10.9133 9.50931 11.4259 9.50043 11.9499C9.49155 12.474 9.62011 12.9912 9.87331 13.4501L9.90238 13.5001C10.1632 13.9526 10.5378 14.3292 10.9889 14.5925C11.44 14.8558 11.9521 14.9967 12.4744 15.0012C12.9968 15.0059 13.5113 14.874 13.9669 14.6185C14.4225 14.3631 14.8035 13.9932 15.0722 13.5453V13.5451L15.0982 13.5001C15.3603 13.0461 15.4988 12.5314 15.5 12.0073C15.5012 11.4831 15.365 10.9678 15.105 10.5127C14.8451 10.0576 14.4705 9.6785 14.0185 9.41326Z" fill="#413A66"/>
<path d="M9.74453 7.82716C10.562 7.28754 11.5201 6.99993 12.4996 7.00005H21.1616C20.2841 5.47935 19.0215 4.21661 17.5009 3.33888C15.9803 2.46116 14.2553 1.99942 12.4996 2.00013C11.1139 1.99858 9.74303 2.28578 8.47445 2.84341C7.20593 3.40118 6.06753 4.21711 5.1318 5.23919L7.9007 10.0352C8.28582 9.13451 8.92695 8.36673 9.74453 7.82716ZM10.2205 16.4519C9.33393 15.998 8.60315 15.2895 8.12195 14.4173L3.83898 6.99841C2.98703 8.47052 2.5 10.1784 2.5 12.0004C2.5 16.7772 5.84992 20.7712 10.327 21.7633H10.3279L13.098 16.9654C12.1091 17.0847 11.1071 16.9059 10.2205 16.4519Z" fill="#413A66"/>
</svg>
