<svg width="56" height="56" viewBox="0 0 56 56" fill="none" xmlns="http://www.w3.org/2000/svg">
<path d="M16.8889 8.55556C16.8889 5.48731 19.3762 3 22.4444 3C25.5128 3 28 5.48731 28 8.55556V14.1111H41.8889V28H47.4444C50.5128 28 53 30.4872 53 33.5556C53 36.6239 50.5128 39.1111 47.4444 39.1111H41.8889V53H28V47.4444C28 44.3761 25.5128 41.8889 22.4444 41.8889C19.3762 41.8889 16.8889 44.3761 16.8889 47.4444V53H3V39.1111H8.55556C11.6238 39.1111 14.1111 36.6239 14.1111 33.5556C14.1111 30.4872 11.6238 28 8.55556 28H3V14.1111H16.8889V8.55556Z" stroke="#413A66" stroke-width="5" stroke-linecap="square"/>
</svg>
