<svg width="56" height="56" viewBox="0 0 56 56" fill="none" xmlns="http://www.w3.org/2000/svg">
<path d="M42.0791 11.1895C42.6738 11.0712 43.2904 11.1322 43.8506 11.3643C44.4107 11.5963 44.8897 11.9891 45.2266 12.4932C45.5634 12.9972 45.7431 13.5901 45.7432 14.1963C45.7432 15.0094 45.4197 15.7893 44.8447 16.3643C44.2698 16.9392 43.4899 17.2627 42.6768 17.2627C42.0705 17.2626 41.4777 17.0829 40.9736 16.7461C40.4695 16.4093 40.0768 15.9302 39.8447 15.3701C39.6127 14.8099 39.5517 14.1933 39.6699 13.5986C39.7882 13.0039 40.081 12.4581 40.5098 12.0293C40.9385 11.6005 41.4844 11.3077 42.0791 11.1895Z" fill="#413A66" stroke="#413A66" stroke-width="1.5625"/>
<path d="M49.5496 3H34.7744C34.315 2.99967 33.8742 3.1812 33.5482 3.50493L4.00986 33.0432C3.36309 33.6932 3 34.5728 3 35.4898C3 36.4067 3.36309 37.2863 4.00986 37.9363L18.0757 52.0021C18.7257 52.6489 19.6053 53.012 20.5222 53.012C21.4392 53.012 22.3188 52.6489 22.9687 52.0021L52.495 22.4758C52.8188 22.1498 53.0003 21.709 53 21.2496V6.46237C53.0022 6.00808 52.9145 5.55783 52.7421 5.13754C52.5696 4.71725 52.3157 4.33521 51.9951 4.01341C51.6744 3.69162 51.2932 3.43642 50.8735 3.26249C50.4539 3.08857 50.0039 2.99936 49.5496 3Z" stroke="#413A66" stroke-width="5" stroke-linecap="round" stroke-linejoin="round"/>
</svg>
